<?xml version="1.0" encoding="utf-8"?>
<!-- Generator: Adobe Illustrator 16.0.0, SVG Export Plug-In . SVG Version: 6.00 Build 0)  -->
<!DOCTYPE svg PUBLIC "-//W3C//DTD SVG 1.1//EN" "http://www.w3.org/Graphics/SVG/1.1/DTD/svg11.dtd">
<svg version="1.1" id="Layer_1" xmlns="http://www.w3.org/2000/svg" xmlns:xlink="http://www.w3.org/1999/xlink" x="0px" y="0px"
	 width="612px" height="792px" viewBox="0 0 612 792" enable-background="new 0 0 612 792" xml:space="preserve">
<polygon fill="none" stroke="#EC008C" stroke-width="0.576" points="306.548,390.247 305.094,390.917 306.548,387.681 
	307.898,390.917 "/>
<line fill="none" stroke="#EC008C" stroke-width="0.576" x1="306.538" y1="404.693" x2="306.538" y2="390.247"/>
<path fill="none" stroke="#EC008C" stroke-width="0.576" d="M307.467,396.182c0,0.509-0.412,0.921-0.922,0.921
	c-0.509,0-0.921-0.412-0.921-0.921"/>
<path fill="none" stroke="#EC008C" stroke-width="0.576" stroke-linejoin="round" d="M303.78,397.102v-0.921l0.001,0.001
	c0-0.509,0.413-0.922,0.922-0.922c0.508,0,0.921,0.413,0.921,0.922"/>
<path fill="none" stroke="#EC008C" stroke-width="0.576" d="M307.467,396.182c0-0.509,0.411-0.922,0.92-0.922
	c0.51,0,0.922,0.413,0.922,0.922l-0.002-0.001v0.921"/>
</svg>
