<?xml version="1.0" encoding="utf-8"?>
<!-- Generator: Adobe Illustrator 16.0.0, SVG Export Plug-In . SVG Version: 6.00 Build 0)  -->
<!DOCTYPE svg PUBLIC "-//W3C//DTD SVG 1.1//EN" "http://www.w3.org/Graphics/SVG/1.1/DTD/svg11.dtd">
<svg version="1.1" id="Layer_1" xmlns="http://www.w3.org/2000/svg" xmlns:xlink="http://www.w3.org/1999/xlink" x="0px" y="0px"
	 width="612px" height="792px" viewBox="0 0 612 792" enable-background="new 0 0 612 792" xml:space="preserve">
<line fill="none" stroke="#EC008C" stroke-width="0.576" x1="306.737" y1="401.01" x2="306.737" y2="389.177"/>
<polygon fill="#EC008C" points="306.748,389.177 305.294,389.846 306.748,386.611 308.1,389.846 "/>
<polygon fill="none" stroke="#EC008C" stroke-width="0.576" points="306.748,389.177 305.294,389.846 306.748,386.611 
	308.1,389.846 "/>
<polygon fill="#EC008C" points="306.748,401.055 305.294,400.387 306.748,403.619 308.1,400.387 "/>
<polygon fill="none" stroke="#EC008C" stroke-width="0.576" points="306.748,401.055 305.294,400.387 306.748,403.619 
	308.1,400.387 "/>
<path fill="none" stroke="#EC008C" stroke-width="0.576" d="M307.666,395.112c0,0.509-0.412,0.921-0.921,0.921
	c-0.508,0-0.921-0.412-0.921-0.921"/>
<path fill="none" stroke="#EC008C" stroke-width="0.576" stroke-linejoin="round" d="M303.98,396.032v-0.921l0.002,0.001
	c0-0.509,0.412-0.922,0.921-0.922c0.509,0,0.921,0.413,0.921,0.922"/>
<path fill="none" stroke="#EC008C" stroke-width="0.576" d="M307.666,395.112c0-0.509,0.413-0.922,0.922-0.922
	c0.51,0,0.922,0.413,0.922,0.922l-0.002-0.001v0.921"/>
</svg>
